<?xml version="1.0" standalone="no"?>
<!DOCTYPE svg PUBLIC "-//W3C//DTD SVG 20010904//EN"
 "http://www.w3.org/TR/2001/REC-SVG-20010904/DTD/svg10.dtd">
<svg version="1.0" xmlns="http://www.w3.org/2000/svg"
 width="256.000000pt" height="256.000000pt" viewBox="0 0 256.000000 256.000000"
 preserveAspectRatio="xMidYMid meet">

<g transform="translate(0.000000,256.000000) scale(0.100000,-0.100000)"
fill="#000000" stroke="none">
<path d="M1391 2342 c32 -27 78 -106 68 -116 -2 -2 -29 0 -59 6 -59 11 -171 5
-248 -13 -85 -20 -207 -86 -273 -147 -96 -88 -143 -171 -173 -302 -4 -15 -29
-42 -66 -70 -32 -24 -57 -46 -55 -48 2 -3 30 -7 62 -11 l58 -6 8 -58 c8 -55 7
-60 -17 -84 -58 -58 -52 -149 13 -214 37 -37 94 -58 127 -45 25 10 5 26 -33
26 -28 0 -43 8 -69 35 -41 44 -52 94 -33 149 19 54 32 54 48 1 7 -25 22 -56
32 -69 11 -13 19 -36 19 -50 0 -14 5 -27 10 -27 6 -1 15 -2 20 -3 16 -2 30
-28 30 -55 0 -56 127 -138 240 -156 70 -10 80 -15 80 -35 0 -30 58 -89 100
-101 68 -21 181 28 226 96 16 24 16 27 0 44 -16 17 -15 19 11 24 41 8 117 60
146 98 35 48 76 175 83 262 l7 74 43 -42 c52 -51 64 -96 39 -149 -21 -43 -47
-64 -92 -72 -51 -10 -40 -27 13 -21 100 11 155 124 105 217 -16 30 -17 44 -9
100 13 88 4 202 -21 274 -45 129 -168 282 -258 323 -21 10 -40 19 -42 20 -2 1
2 9 8 17 16 19 17 72 2 90 -18 22 -90 53 -141 61 l-45 7 36 -30z m-271 -231
c0 -5 -10 -13 -22 -17 -36 -11 -178 -106 -235 -158 -29 -26 -53 -45 -53 -41 0
16 63 96 102 130 49 42 86 63 143 81 49 16 65 17 65 5z m561 -138 c15 -15 34
-43 44 -62 19 -37 33 -141 19 -141 -5 0 -35 57 -66 125 -57 126 -56 143 3 78z
m-647 -54 c-3 -6 0 -15 7 -20 14 -10 -14 -40 -83 -90 -52 -38 -29 20 35 89 30
31 56 44 41 21z m235 -76 c-14 -61 -10 -104 12 -151 l22 -44 23 78 c12 44 30
97 39 118 l17 40 22 -45 c35 -74 82 -125 164 -179 119 -77 118 -76 73 -102
-28 -15 -31 -15 -77 8 -54 27 -90 30 -137 10 -38 -15 -84 -66 -93 -102 -5 -21
-12 -24 -54 -24 -27 0 -55 -2 -62 -5 -9 -4 -20 7 -30 29 -11 21 -35 45 -63 61
-86 51 -184 22 -231 -67 -17 -32 -18 -105 -3 -145 46 -122 213 -142 286 -34
12 18 25 50 29 70 9 50 21 61 64 61 41 0 54 -11 64 -52 13 -57 81 -114 141
-119 80 -6 128 19 162 84 19 37 21 124 3 156 -10 20 -9 26 9 44 11 12 23 18
26 15 12 -11 25 -125 19 -163 -31 -203 -285 -318 -572 -259 -140 28 -206 73
-252 170 -21 45 -22 58 -16 149 3 55 11 104 16 109 7 7 10 7 10 0 0 -6 7 -19
15 -30 13 -16 13 -12 -1 24 -16 41 -16 46 1 80 22 47 96 151 125 177 21 18 21
17 -4 -23 -32 -51 -60 -154 -52 -188 6 -24 8 -24 68 28 127 111 168 151 204
204 21 30 38 54 40 54 1 0 -2 -17 -7 -37z m-109 -14 c0 -15 -39 -69 -50 -69
-11 0 5 47 22 67 13 16 28 17 28 2z m-344 -203 c-10 -54 -26 -67 -26 -21 0 26
19 75 30 75 3 0 1 -24 -4 -54z m949 -26 c0 -13 -6 -25 -12 -27 -9 -3 -13 6
-13 27 0 21 4 30 13 28 6 -3 12 -15 12 -28z m-215 -65 c48 -25 70 -62 70 -117
0 -88 -42 -138 -118 -138 -82 0 -142 56 -142 133 0 105 99 169 190 122z m-436
-33 c76 -44 84 -147 16 -214 -34 -34 -43 -38 -89 -38 -44 0 -56 5 -87 33 -40
37 -56 89 -44 143 21 90 116 125 204 76z m345 -417 c17 -8 31 -20 31 -25 0
-16 -74 -69 -119 -85 -60 -20 -93 -19 -123 5 -30 23 -52 71 -45 97 4 14 5 14
6 -4 0 -13 6 -23 12 -23 5 0 9 8 8 18 -1 9 -1 20 0 23 0 3 46 7 100 8 75 2
107 -2 130 -14z"/>
<path d="M1235 1250 c-4 -6 17 -10 57 -10 44 0 59 3 48 10 -20 13 -97 13 -105
0z"/>
<path d="M1750 1400 c0 -5 11 -10 25 -10 14 0 25 5 25 10 0 6 -11 10 -25 10
-14 0 -25 -4 -25 -10z"/>
<path d="M740 1361 c13 -26 27 -34 35 -21 8 14 -13 40 -32 40 -10 0 -11 -4 -3
-19z"/>
<path d="M1736 1354 c-8 -21 -1 -28 19 -20 9 3 15 11 13 18 -7 19 -25 20 -32
2z"/>
<path d="M367 1183 c-4 -3 -7 -24 -7 -45 0 -21 -5 -47 -12 -57 -9 -15 -5 -37
23 -118 l34 -99 -26 -22 c-15 -12 -30 -22 -33 -22 -12 0 -6 52 10 81 8 17 13
34 9 37 -9 9 -32 -19 -49 -59 -13 -31 -13 -39 -1 -63 12 -22 12 -36 3 -71 -16
-60 2 -119 53 -167 70 -67 128 -66 200 2 l39 37 0 -27 c0 -15 -9 -38 -20 -51
-17 -21 -21 -22 -30 -9 -8 12 -10 10 -10 -11 0 -49 50 -48 75 2 32 61 14 145
-45 213 -27 30 -39 36 -64 34 -30 -3 -32 -1 -68 84 -58 137 -57 134 -9 104 74
-47 569 -256 605 -256 10 0 24 -54 51 -197 20 -109 41 -213 46 -232 5 -19 7
-36 5 -38 -2 -2 -98 37 -212 87 -243 107 -327 140 -354 140 -27 0 -25 -18 3
-30 12 -5 147 -61 299 -125 238 -98 281 -113 303 -105 15 6 53 10 86 10 32 0
59 4 59 10 0 20 -42 31 -93 25 l-52 -7 -48 265 c-26 146 -46 271 -44 278 2 8
2 11 0 7 -9 -16 -410 143 -649 258 -61 29 -62 30 -61 70 l0 41 43 -29 c83 -56
427 -201 592 -250 110 -33 349 -33 468 0 278 75 522 172 625 248 l49 36 21
-47 c13 -30 17 -50 11 -54 -6 -3 -183 -64 -395 -135 l-385 -128 -6 -42 c-3
-22 -19 -131 -35 -241 -17 -110 -32 -227 -33 -260 -3 -54 -1 -60 18 -63 21 -3
240 62 486 145 103 34 141 52 153 69 20 31 5 32 -67 3 -78 -31 -422 -147 -501
-169 l-69 -19 5 22 c6 24 77 464 77 477 0 4 53 24 118 45 254 81 471 155 552
189 46 20 86 36 88 36 2 0 -25 -55 -59 -121 -51 -98 -69 -124 -95 -136 -45
-22 -71 -74 -79 -165 -9 -102 -2 -114 74 -123 84 -10 158 24 200 90 28 44 29
52 30 158 0 109 -17 187 -41 187 -18 0 -19 -29 -2 -55 13 -21 15 -28 5 -34 -9
-6 -8 -10 5 -15 15 -6 16 -16 10 -87 -4 -45 -13 -94 -21 -109 -32 -61 -135
-120 -181 -104 -37 13 -64 47 -64 78 l0 31 18 -22 c20 -26 88 -57 104 -47 7 4
-11 18 -43 33 -47 23 -54 30 -57 58 -3 34 21 91 42 99 7 3 26 -2 42 -11 30
-15 71 -19 98 -9 25 10 19 22 -8 17 -28 -6 -66 12 -66 30 0 7 6 22 14 32 13
17 14 17 47 -8 50 -38 73 -20 24 19 l-36 29 45 96 c58 125 63 143 39 160 -10
8 -27 35 -36 61 -28 73 -37 76 -106 34 -137 -84 -408 -187 -631 -241 -150 -37
-304 -39 -428 -6 -163 43 -515 188 -608 250 -47 32 -56 36 -67 24z m357 -291
c116 -49 244 -102 284 -117 40 -16 69 -32 64 -37 -5 -5 -39 4 -78 20 -38 16
-141 57 -229 92 -206 80 -381 164 -394 188 -8 15 5 11 66 -19 42 -21 171 -79
287 -127z m1506 149 c0 -4 -44 -25 -97 -46 -128 -49 -687 -233 -693 -228 -10
9 36 26 315 118 160 52 328 110 375 129 97 38 100 39 100 27z m-1784 -242 l26
-41 -31 -32 c-48 -49 -37 -62 18 -22 27 20 55 36 63 36 18 0 68 -69 68 -92 0
-25 -82 -88 -115 -88 -39 0 -124 86 -126 126 -4 73 3 99 35 126 17 15 32 27
33 28 2 0 14 -19 29 -41z"/>
<path d="M498 657 c-52 -35 -60 -48 -25 -40 42 11 111 73 80 73 -5 0 -29 -15
-55 -33z"/>
<path d="M1612 1129 c-103 -17 -93 -29 23 -27 92 1 119 -2 165 -20 30 -12 61
-22 69 -22 27 0 -10 29 -62 48 -68 25 -130 32 -195 21z"/>
<path d="M924 1080 c-22 -11 -54 -34 -70 -52 l-29 -31 29 7 c15 4 46 21 67 38
38 30 40 31 116 24 90 -8 89 5 -1 23 -74 14 -64 15 -112 -9z"/>
<path d="M2048 674 c-18 -17 -8 -55 16 -64 40 -15 98 -16 103 -2 3 7 -3 12
-14 12 -44 0 -92 21 -95 41 -2 12 -6 17 -10 13z"/>
<path d="M2401 361 c7 -10 21 -24 33 -31 15 -9 12 -3 -8 19 -34 35 -41 39 -25
12z"/>
<path d="M2370 354 c0 -13 58 -69 65 -63 2 3 -11 21 -30 39 -19 19 -35 29 -35
24z"/>
<path d="M2325 279 c-44 -39 -61 -67 -47 -81 23 -23 112 52 112 93 0 28 -25
23 -65 -12z"/>
<path d="M2230 214 c0 -13 58 -69 65 -63 2 3 -11 21 -30 39 -19 19 -35 29 -35
24z"/>
<path d="M2198 150 c-18 -44 -14 -47 38 -28 l32 11 -21 29 c-11 15 -23 28 -26
28 -3 0 -14 -18 -23 -40z"/>
</g>
</svg>
